<svg width="68" height="58" viewBox="0 0 68 58" fill="none" xmlns="http://www.w3.org/2000/svg">
<path d="M68.0001 28.9141V46.8385C68.0001 52.9259 52.8187 57.999 34.1583 57.999C15.4978 57.999 0.63272 53.0952 0.63272 47.0078V44.9787L0.316406 30.7745H0.474411C3.00459 36.0165 16.921 40.0749 33.6836 40.0749C50.4463 40.0749 67.6838 35.0022 67.6838 28.9144H68.0001V28.9141Z" fill="#CD3C04"/>
<path d="M0.47431 30.7764L0.316305 27.0562L0 11.8376C1.10693 17.5868 15.814 22.1524 33.6838 22.1524C51.5537 22.1524 67.3677 17.2486 67.842 11.3301H68V28.9163H67.6837C67.6837 35.0037 52.344 40.0768 33.6835 40.0768C15.0234 40.0765 3.00479 36.0184 0.47431 30.7764Z" fill="#FA4D0A"/>
<path d="M67.842 10.9909V11.3292C67.3677 17.2477 52.028 22.1515 33.6838 22.1515C15.3397 22.1515 1.10693 17.5859 0 11.8367V10.9913C0 10.653 9.56209e-07 10.3148 0.158005 9.97657C1.89756 4.39631 15.972 1.60209e-08 33.2092 1.60209e-08H33.6835C52.3443 -0.000323646 67.842 4.90349 67.842 10.9909Z" fill="#FC9770"/>
</svg>
