<svg width="68" height="68" viewBox="0 0 68 68" fill="none" xmlns="http://www.w3.org/2000/svg">
<path opacity="0.4" d="M67.3332 34.0154C67.3332 52.3785 52.3718 67.3327 33.9998 67.3327C15.6279 67.3327 0.666504 52.3785 0.666504 34.0154C0.666504 15.6202 15.6279 0.666016 33.9998 0.666016C52.3718 0.666016 67.3332 15.6202 67.3332 34.0154" fill="#192252"/>
<path d="M47.3333 34.0155C47.3333 34.858 47.0682 35.7037 46.5379 36.3809C46.4384 36.5137 45.9744 37.0613 45.6098 37.4177L45.411 37.6121C42.6269 40.5639 35.6998 45.003 32.1866 46.4254C32.1866 46.4578 30.0985 47.3035 29.1042 47.3327H28.9716C27.447 47.3327 26.0218 46.4935 25.2926 45.1326C24.8949 44.3841 24.5303 42.2132 24.4972 42.184C24.1989 40.2367 24 37.2557 24 33.9831C24 30.5518 24.1989 27.438 24.5634 25.5263C24.5634 25.4939 24.928 23.7442 25.16 23.161C25.5246 22.3217 26.1875 21.6057 27.0161 21.152C27.679 20.8313 28.375 20.666 29.1042 20.666C29.8665 20.7017 31.2917 21.1844 31.8551 21.4113C35.5672 22.8369 42.66 27.5028 45.3778 30.3541C45.8419 30.8078 46.339 31.3618 46.4716 31.4882C47.035 32.201 47.3333 33.0759 47.3333 34.0155" fill="#192252"/>
</svg>
