<svg width="48" height="48" viewBox="0 0 48 48" fill="none" xmlns="http://www.w3.org/2000/svg">
<path d="M32.38 4H15.62C8.34 4 4 8.34 4 15.62V32.36C4 39.66 8.34 44 15.62 44H32.36C39.64 44 43.98 39.66 43.98 32.38V15.62C44 8.34 39.66 4 32.38 4ZM17.28 25.62L26.04 16.86H21.18C20.36 16.86 19.68 16.18 19.68 15.36C19.68 14.54 20.36 13.86 21.18 13.86H29.66C29.86 13.86 30.04 13.9 30.24 13.98C30.6 14.14 30.9 14.42 31.06 14.8C31.14 14.98 31.18 15.18 31.18 15.38V23.86C31.18 24.68 30.5 25.36 29.68 25.36C28.86 25.36 28.18 24.68 28.18 23.86V19L19.4 27.74C19.1 28.04 18.72 28.18 18.34 28.18C17.96 28.18 17.58 28.04 17.28 27.74C16.7 27.16 16.7 26.2 17.28 25.62ZM36.48 34.44C32.46 35.78 28.24 36.46 24 36.46C19.76 36.46 15.54 35.78 11.52 34.44C10.74 34.18 10.32 33.32 10.58 32.54C10.84 31.76 11.68 31.32 12.48 31.6C19.92 34.08 28.1 34.08 35.54 31.6C36.32 31.34 37.18 31.76 37.44 32.54C37.68 33.34 37.26 34.18 36.48 34.44Z" fill="#6245D5"/>
</svg>
