<svg width="48" height="48" viewBox="0 0 48 48" fill="none" xmlns="http://www.w3.org/2000/svg">
<path d="M32.84 15.9002C37.72 20.7802 37.72 28.7002 32.84 33.5802C27.96 38.4602 20.04 38.4602 15.16 33.5802C10.28 28.7002 10.28 20.7802 15.16 15.9002C20.04 11.0202 27.96 11.0202 32.84 15.9002Z" fill="white" fill-opacity="0.3"/>
<path d="M16.5001 44.7797C16.3201 44.7797 16.1201 44.7397 15.9401 44.6797C11.4401 42.8797 7.80006 39.6997 5.36006 35.4997C3.00006 31.3997 2.06006 26.7597 2.68006 22.0397C2.78006 21.2197 3.56006 20.6397 4.36006 20.7397C5.18006 20.8397 5.76006 21.5997 5.66006 22.4197C5.14006 26.4797 5.94006 30.4797 7.96006 33.9997C10.0401 37.5997 13.1801 40.3397 17.0401 41.8797C17.8001 42.1997 18.1801 43.0597 17.8801 43.8397C17.6601 44.4197 17.0801 44.7797 16.5001 44.7797Z" fill="white" fill-opacity="0.3"/>
<path d="M11.7002 10.4607C11.2602 10.4607 10.8202 10.2607 10.5202 9.8807C10.0002 9.2407 10.1202 8.3007 10.7802 7.7807C14.5802 4.8007 19.1602 3.2207 24.0002 3.2207C28.7202 3.2207 33.2202 4.7407 37.0002 7.6207C37.6602 8.1207 37.7802 9.0607 37.2802 9.7207C36.7802 10.3807 35.8402 10.5007 35.1802 10.0007C31.9202 7.5207 28.0602 6.2207 24.0002 6.2207C19.8402 6.2207 15.9002 7.5807 12.6202 10.1407C12.3402 10.3607 12.0202 10.4607 11.7002 10.4607Z" fill="white" fill-opacity="0.3"/>
<path d="M31.4999 44.7793C30.8999 44.7793 30.3399 44.4193 30.0999 43.8393C29.7999 43.0793 30.1599 42.1993 30.9399 41.8793C34.7999 40.3193 37.9399 37.5993 40.0199 33.9993C42.0599 30.4793 42.8599 26.4793 42.3199 22.4393C42.2199 21.6193 42.7999 20.8593 43.6199 20.7593C44.4199 20.6593 45.1999 21.2393 45.2999 22.0593C45.8999 26.7593 44.9799 31.4193 42.6199 35.5193C40.1999 39.7193 36.5399 42.8793 32.0399 44.6993C31.8799 44.7393 31.6999 44.7793 31.4999 44.7793Z" fill="white" fill-opacity="0.3"/>
</svg>
